<svg xmlns="http://www.w3.org/2000/svg" viewBox="0 0 800 1000" preserveAspectRatio="xMidYMid slice">
  <defs>
    <linearGradient id="bg2" x1="0" y1="0" x2="1" y2="1">
      <stop offset="0" stop-color="#f6e3ea"/>
      <stop offset="0.5" stop-color="#f0b49a"/>
      <stop offset="1" stop-color="#c79a4c"/>
    </linearGradient>
    <radialGradient id="halo2" cx="50%" cy="38%" r="42%">
      <stop offset="0" stop-color="#ffffff" stop-opacity="0.7"/>
      <stop offset="1" stop-color="#ffffff" stop-opacity="0"/>
    </radialGradient>
  </defs>
  <rect width="800" height="1000" fill="url(#bg2)"/>
  <circle cx="400" cy="380" r="320" fill="url(#halo2)"/>
  <g fill="#6f2342" opacity="0.85">
    <circle cx="400" cy="360" r="120"/>
    <path d="M210 760c0-120 85-210 190-210s190 90 190 210v40H210z"/>
  </g>
  <g fill="none" stroke="#ffffff" stroke-width="4" opacity="0.5">
    <path d="M400 880c-70 0-110-42-110-82 30-15 58-15 76 0 0-40 14-82 34-110 20 28 34 70 34 110 18-15 46-15 76 0 0 40-40 82-110 82z"/>
  </g>
  <text x="400" y="940" text-anchor="middle" font-family="Georgia, serif" font-size="30" fill="#6f2342" opacity="0.85">Guiding a session</text>
  <text x="400" y="975" text-anchor="middle" font-family="Arial, sans-serif" font-size="18" fill="#6f2342" opacity="0.55">Replace with photo → vedika-2</text>
</svg>
